<svg width="664" height="663" xmlns="http://www.w3.org/2000/svg" xmlns:xlink="http://www.w3.org/1999/xlink" overflow="hidden"><g transform="translate(-308 -29)"><path d="M309 360C309 177.194 457.194 29 640 29L640 29C822.806 29 971 177.194 971 360L971 360C971 542.806 822.806 691 640 691L640 691C457.194 691 309 542.806 309 360Z" fill="#0F1A1F" fill-rule="evenodd"/><path d="M529.474 231.596C597.298 164.551 709.109 167.688 779.211 238.604 826.704 286.649 879.211 329.736 936.733 367.867 880.418 402.803 829.285 442.982 783.335 488.404 715.511 555.45 603.7 552.312 533.598 481.396 463.497 410.481 461.65 298.641 529.474 231.596Z" fill="#FFFFFF" fill-rule="evenodd"/><path d="M420 360C420 255.618 518.497 171 640 171 761.503 171 860 255.618 860 360 860 464.382 761.503 549 640 549 518.497 549 420 464.382 420 360Z" fill="#FFFFFF" fill-rule="evenodd"/><path d="M0 172.68C-2.29866e-14 77.3115 80.8357-2.19845e-14 180.552-4.39689e-14 248.108-1.46563e-14 315.665-7.0511 383.221-21.1533 368.476 43.4577 361.103 108.069 361.103 172.68 361.103 268.049 280.268 345.36 180.552 345.36 80.8357 345.36 0 268.049 0 172.68Z" fill="#FFFFFF" fill-rule="evenodd" transform="matrix(-0.703013 0.711177 0.711177 0.703013 626.578 110.2)"/><path d="M465 360C465 263.35 543.35 185 640 185 736.65 185 815 263.35 815 360 815 456.65 736.65 535 640 535 543.35 535 465 456.65 465 360Z" fill="#0F1A1F" fill-rule="evenodd"/><rect x="625" y="171" width="27" height="364" fill="#FFFFFF"/></g></svg>